# xmcd
# 
# Track frame offsets:
#     150
#     23759
#     40875
#     59406
#     78265
#     99626
#     120365
#     140117
#     158856
#     182302
#     199395
#     217822
#     238306
#     259070
#     278724
#     296483
#     310016
# 
# Disc length: 4367
# 
# Revision: 0
# Processed by: cddbd v1.5.2PL0 Copyright (c) Steve Scherf et al.
# Submitted via: fre:ac v1.0.27
# 
DISCID=ef110d11
DTITLE=Sergio Dalma - Lo mejor de Sergio Dalma 1984-2004
DYEAR=2004
DGENRE=Pop
TTITLE0=Mi historia entre tus dedos
TTITLE1=Galilea
TTITLE2=Esa chica es mía
TTITLE3=En mi selva
TTITLE4=Bailar pegados
TTITLE5=Ya lo verás
TTITLE6=Fuego en eL alma
TTITLE7=Déjame olvidarte
TTITLE8=Nueva vida
TTITLE9=No me digas que no
TTITLE10=No despertaré
TTITLE11=Naufragos
TTITLE12=Una historia distinta
TTITLE13=Ave Lucía
TTITLE14=Castigado por pensar en ti
TTITLE15=Soy tremendo
TTITLE16=Bailar pegados (versión reggae)
EXTD=
EXTT0=
EXTT1=
EXTT2=
EXTT3=
EXTT4=
EXTT5=
EXTT6=
EXTT7=
EXTT8=
EXTT9=
EXTT10=
EXTT11=
EXTT12=
EXTT13=
EXTT14=
EXTT15=
EXTT16=
PLAYORDER=
